<?xml version="1.0" encoding="UTF-8"?>
<svg width="700pt" height="700pt" version="1.1" viewBox="0 0 700 700" xmlns="http://www.w3.org/2000/svg" xmlns:xlink="http://www.w3.org/1999/xlink">
 <g>
  <path d="m350 364.22c-46.438 0-84.219-37.781-84.219-84.219s37.781-84.219 84.219-84.219 84.219 37.781 84.219 84.219-37.781 84.219-84.219 84.219zm0-153.12c-37.996 0-68.906 30.91-68.906 68.906s30.91 68.906 68.906 68.906 68.906-30.91 68.906-68.906-30.91-68.906-68.906-68.906z"/>
  <path d="m350 101.72c-22.316 0-40.469-18.152-40.469-40.469s18.152-40.469 40.469-40.469 40.469 18.152 40.469 40.469-18.152 40.469-40.469 40.469zm0-65.625c-13.871 0-25.156 11.285-25.156 25.156s11.285 25.156 25.156 25.156 25.156-11.285 25.156-25.156-11.285-25.156-25.156-25.156z"/>
  <path d="m350 211.09c-4.2266 0-7.6562-3.4297-7.6562-7.6562v-109.38c0-4.2266 3.4297-7.6562 7.6562-7.6562s7.6562 3.4297 7.6562 7.6562v109.38c0 4.2266-3.4297 7.6562-7.6562 7.6562z"/>
  <path d="m350 539.22c-22.316 0-40.469-18.152-40.469-40.469s18.152-40.469 40.469-40.469 40.469 18.152 40.469 40.469-18.152 40.469-40.469 40.469zm0-65.625c-13.871 0-25.156 11.285-25.156 25.156s11.285 25.156 25.156 25.156 25.156-11.285 25.156-25.156-11.285-25.156-25.156-25.156z"/>
  <path d="m350 473.59c-4.2266 0-7.6562-3.4297-7.6562-7.6562v-109.38c0-4.2266 3.4297-7.6562 7.6562-7.6562s7.6562 3.4297 7.6562 7.6562v109.38c0 4.2266-3.4297 7.6562-7.6562 7.6562z"/>
  <path d="m504.68 165.79c-22.316 0-40.469-18.152-40.469-40.469 0-22.316 18.152-40.469 40.469-40.469 22.316 0 40.469 18.152 40.469 40.469 0 22.316-18.156 40.469-40.469 40.469zm0-65.625c-13.871 0-25.156 11.285-25.156 25.156 0 13.871 11.285 25.156 25.156 25.156 13.871 0 25.156-11.285 25.156-25.156 0-13.871-11.285-25.156-25.156-25.156z"/>
  <path d="m404.14 233.52c-1.9609 0-3.918-0.74609-5.4141-2.2422-2.9883-2.9922-2.9883-7.8359 0-10.828l77.34-77.34c2.9883-2.9883 7.8359-2.9883 10.828 0 2.9883 2.9922 2.9883 7.8359 0 10.828l-77.34 77.34c-1.4961 1.4922-3.4531 2.2422-5.4141 2.2422z"/>
  <path d="m195.32 475.15c-22.316 0-40.469-18.152-40.469-40.469 0-22.316 18.152-40.469 40.469-40.469 22.316 0 40.469 18.152 40.469 40.469 0 22.312-18.152 40.469-40.469 40.469zm0-65.625c-13.871 0-25.156 11.285-25.156 25.156 0 13.871 11.285 25.156 25.156 25.156 13.871 0 25.156-11.285 25.156-25.156 0-13.871-11.285-25.156-25.156-25.156z"/>
  <path d="m218.52 419.13c-1.9609 0-3.918-0.75-5.4141-2.2422-2.9922-2.9922-2.9922-7.8359 0-10.828l77.34-77.34c2.9883-2.9883 7.8359-2.9883 10.828 0 2.9922 2.9922 2.9922 7.8359 0 10.828l-77.34 77.34c-1.4961 1.4961-3.457 2.2422-5.4141 2.2422z"/>
  <path d="m568.75 320.47c-22.316 0-40.469-18.152-40.469-40.469s18.152-40.469 40.469-40.469 40.469 18.152 40.469 40.469-18.152 40.469-40.469 40.469zm0-65.625c-13.871 0-25.156 11.285-25.156 25.156s11.285 25.156 25.156 25.156 25.156-11.285 25.156-25.156-11.285-25.156-25.156-25.156z"/>
  <path d="m535.94 287.66h-109.38c-4.2266 0-7.6562-3.4297-7.6562-7.6562s3.4297-7.6562 7.6562-7.6562h109.38c4.2266 0 7.6562 3.4297 7.6562 7.6562s-3.4297 7.6562-7.6562 7.6562z"/>
  <path d="m131.25 320.47c-22.316 0-40.469-18.152-40.469-40.469s18.152-40.469 40.469-40.469 40.469 18.152 40.469 40.469-18.152 40.469-40.469 40.469zm0-65.625c-13.871 0-25.156 11.285-25.156 25.156s11.285 25.156 25.156 25.156 25.156-11.285 25.156-25.156-11.285-25.156-25.156-25.156z"/>
  <path d="m273.44 287.66h-109.38c-4.2266 0-7.6562-3.4297-7.6562-7.6562s3.4297-7.6562 7.6562-7.6562h109.38c4.2266 0 7.6562 3.4297 7.6562 7.6562s-3.4297 7.6562-7.6562 7.6562z"/>
  <path d="m504.68 475.15c-22.316 0-40.469-18.152-40.469-40.469 0-22.316 18.152-40.469 40.469-40.469 22.316 0 40.469 18.152 40.469 40.469 0 22.312-18.156 40.469-40.469 40.469zm0-65.625c-13.871 0-25.156 11.285-25.156 25.156 0 13.871 11.285 25.156 25.156 25.156 13.871 0 25.156-11.285 25.156-25.156 0-13.871-11.285-25.156-25.156-25.156z"/>
  <path d="m481.48 419.13c-1.957 0-3.918-0.75-5.4141-2.2422l-77.34-77.34c-2.9883-2.9922-2.9883-7.8359 0-10.828 2.9922-2.9883 7.8359-2.9883 10.828 0l77.34 77.34c2.9883 2.9922 2.9883 7.8359 0 10.828-1.4961 1.4961-3.4531 2.2422-5.4141 2.2422z"/>
  <path d="m195.32 165.79c-22.316 0-40.469-18.152-40.469-40.469 0-22.316 18.152-40.469 40.469-40.469 22.316 0 40.469 18.152 40.469 40.469 0 22.316-18.152 40.469-40.469 40.469zm0-65.625c-13.871 0-25.156 11.285-25.156 25.156 0 13.871 11.285 25.156 25.156 25.156 13.871 0 25.156-11.285 25.156-25.156 0-13.871-11.285-25.156-25.156-25.156z"/>
  <path d="m295.86 233.52c-1.9609 0-3.918-0.75-5.4141-2.2422l-77.34-77.34c-2.9922-2.9883-2.9922-7.8359 0-10.828 2.9883-2.9883 7.8359-2.9883 10.828 0l77.34 77.34c2.9922 2.9883 2.9922 7.8359 0 10.828-1.4961 1.4922-3.457 2.2422-5.4141 2.2422z"/>
  <use x="70" y="576.40625" xlink:href="#t"/>
  <use x="74.011719" y="576.40625" xlink:href="#c"/>
  <use x="76.710938" y="576.40625" xlink:href="#b"/>
  <use x="80.417969" y="576.40625" xlink:href="#d"/>
  <use x="84.109375" y="576.40625" xlink:href="#a"/>
  <use x="86.722656" y="576.40625" xlink:href="#b"/>
  <use x="90.433594" y="576.40625" xlink:href="#i"/>
  <use x="96.25" y="576.40625" xlink:href="#h"/>
  <use x="100.167969" y="576.40625" xlink:href="#g"/>
  <use x="105.636719" y="576.40625" xlink:href="#f"/>
  <use x="109.371094" y="576.40625" xlink:href="#s"/>
  <use x="111.246094" y="576.40625" xlink:href="#d"/>
  <use x="114.9375" y="576.40625" xlink:href="#a"/>
  <use x="117.550781" y="576.40625" xlink:href="#d"/>
  <use x="121.238281" y="576.40625" xlink:href="#c"/>
  <use x="123.9375" y="576.40625" xlink:href="#a"/>
  <use x="70" y="581.875" xlink:href="#r"/>
  <use x="72.378906" y="581.875" xlink:href="#c"/>
  <use x="75.078125" y="581.875" xlink:href="#e"/>
  <use x="78.832031" y="581.875" xlink:href="#q"/>
  <use x="86.4375" y="581.875" xlink:href="#a"/>
  <use x="89.050781" y="581.875" xlink:href="#p"/>
  <use x="92.941406" y="581.875" xlink:href="#b"/>
  <use x="98.554688" y="581.875" xlink:href="#o"/>
  <use x="103.132812" y="581.875" xlink:href="#e"/>
  <use x="106.890625" y="581.875" xlink:href="#n"/>
  <use x="110.785156" y="581.875" xlink:href="#m"/>
  <use x="116.582031" y="581.875" xlink:href="#l"/>
  <use x="120.589844" y="581.875" xlink:href="#c"/>
  <use x="123.285156" y="581.875" xlink:href="#e"/>
  <use x="127.042969" y="581.875" xlink:href="#k"/>
  <use x="128.917969" y="581.875" xlink:href="#b"/>
  <use x="132.625" y="581.875" xlink:href="#j"/>
  <use x="135.867188" y="581.875" xlink:href="#a"/>
 </g>
</svg>
